<svg xmlns="http://www.w3.org/2000/svg" viewBox="0 0 64 64" width="64" height="64">
  <defs>
    <linearGradient id="bg" x1="0" y1="0" x2="1" y2="1">
      <stop offset="0" stop-color="#fff"/>
      <stop offset="1" stop-color="#ffe3e3"/>
    </linearGradient>
  </defs>
  <path fill="url(#bg)" d="M40 6c7 0 13 5 14 12 5 1 9 6 9 11 0 4-2 8-6 10 1 6-3 12-9 13-2 4-6 6-11 6-4 0-8-2-10-5-6 1-12-3-13-9-5-1-9-6-9-12 0-4 2-8 6-10-1-6 3-12 9-13 2-4 6-6 11-6 3 0 6 1 9 4z"/>
  <g fill="none" stroke="#ed1c24" stroke-width="2.4" stroke-linecap="round">
    <path d="M32 14v36"/>
    <path d="M32 20c-4-4-12-3-12 4 0 3 2 5 5 6-4 1-6 4-6 7 0 6 8 8 13 4"/>
    <path d="M32 20c4-4 12-3 12 4 0 3-2 5-5 6 4 1 6 4 6 7 0 6-8 8-13 4"/>
  </g>
</svg>
